<svg width="457" height="457" viewBox="0 0 457 457" fill="none" xmlns="http://www.w3.org/2000/svg">
<path d="M83.6788 228.109C84.4158 227.593 108.488 210.62 93.2587 187.161C77.7836 163.335 54.792 173.774 31.3828 133.244C31.3828 133.244 20.0835 163.335 50.1986 180.898C80.2645 198.436 66.5334 216.785 46.514 228.085H46.4403C46.4403 228.085 46.4649 228.085 46.4895 228.085C46.4895 228.085 46.4649 228.085 46.4403 228.085H46.514C66.5334 239.384 80.2399 257.733 50.1986 275.271C20.1081 292.834 31.3828 322.925 31.3828 322.925C54.792 282.37 77.7836 292.834 93.2587 269.008C108.488 245.549 84.4158 228.576 83.6788 228.06V228.109Z" fill="#227CFF"/>
<path d="M25.1429 278.366C25.1429 278.366 17.7983 280.626 10.159 290.01C3.20753 298.558 0.161621 317.226 0.161621 317.226V136.266C0.161621 136.266 1.51263 150.513 9.29931 163.212C15.8578 173.922 25.1183 175.568 25.1183 175.568V278.391L25.1429 278.366Z" fill="#227CFF"/>
<path d="M230.127 232.972C230.127 237.172 229.144 240.39 227.154 242.65C225.189 244.91 222.34 246.04 218.655 246.04C214.971 246.04 212.146 244.934 210.181 242.699C208.24 240.464 207.258 237.246 207.258 232.972V201.015H195.639V232.432C195.639 239.874 197.604 245.524 201.51 249.405C205.44 253.286 211.139 255.202 218.631 255.202C226.123 255.202 231.846 253.262 235.776 249.356C239.731 245.45 241.696 239.825 241.696 232.432V201.015H230.077V232.972H230.127Z" fill="white"/>
<path d="M332.286 201.015H320.447V254.514H332.286V201.015Z" fill="white"/>
<path d="M297.456 238.67C295.54 235.378 293.181 233.388 290.406 232.676C294.508 231.816 297.677 230.023 299.936 227.297C302.196 224.57 303.326 221.18 303.326 217.127C303.326 211.92 301.73 207.94 298.512 205.165C295.294 202.414 290.553 201.038 284.289 201.038H259.701V254.538H271.393V233.732H277.24C278.861 233.732 280.212 234.027 281.268 234.617C282.324 235.206 283.233 236.14 283.995 237.466L293.255 254.538H306.151L297.505 238.67H297.456ZM282.496 224.767H271.197V214.843L265.744 210.004H271.197H282.496C285.886 210.004 288.342 210.593 289.865 211.748C291.388 212.902 292.15 214.794 292.15 217.373C292.15 219.952 291.388 221.77 289.865 222.949C288.342 224.128 285.886 224.742 282.496 224.742V224.767Z" fill="white"/>
<path d="M431.573 201.015H422.092L397.503 254.514H409.417L414.502 242.675H439.409L442.086 248.914L432.973 254.392L444.469 254.514H456.161L431.573 201.015ZM414.944 233.758L420.421 228.919L426.955 213.714L435.528 233.758H414.944Z" fill="white"/>
<path d="M177.633 231.573C175.938 229.313 173.556 227.741 170.461 226.832C173.089 225.874 175.152 224.351 176.651 222.239C178.149 220.151 178.886 217.694 178.886 214.919C178.886 210.62 177.265 207.23 173.998 204.749C170.731 202.268 166.309 201.04 160.758 201.04H136.096V239.703H147.641V231.867H160.169C163.313 231.867 165.573 232.432 166.997 233.538C168.422 234.643 169.11 236.387 169.11 238.77C169.11 241.153 168.397 242.872 166.997 243.928C165.573 244.984 163.313 245.525 160.169 245.525H153.291H136.121V247.244L124.232 254.392L136.121 254.515H161.544C167.366 254.515 171.935 253.189 175.251 250.56C178.567 247.932 180.213 244.37 180.213 239.851C180.213 236.559 179.353 233.783 177.658 231.548L177.633 231.573ZM165.499 221.231C164.05 222.263 161.814 222.779 158.793 222.779H147.641V214.845L142.163 210.006H158.793C161.839 210.006 164.074 210.546 165.499 211.578C166.948 212.61 167.66 214.255 167.66 216.466C167.66 218.677 166.948 220.175 165.499 221.207V221.231Z" fill="white"/>
<path d="M353.682 239.359H366.357L387.997 209.514V201.015H348.99V210.349H374.635L353.682 239.359Z" fill="white"/>
<path d="M369.329 245.893H348.99V254.514H388.759V245.893H369.329Z" fill="white"/>
</svg>
