<svg width="193" height="80" viewBox="0 0 193 80" fill="none" xmlns="http://www.w3.org/2000/svg">
<path d="M35.2243 40.0104C35.5351 39.7928 45.6879 32.634 39.2647 22.7402C32.7379 12.691 23.0409 17.094 13.1679 0C13.1679 0 8.40224 12.691 21.1036 20.0984C33.7843 27.4955 27.993 35.2344 19.5496 40H19.5185C19.5185 40 19.5289 40 19.5393 40C19.5393 40 19.5289 40 19.5185 40H19.5496C27.993 44.7656 33.7739 52.5045 21.1036 59.9016C8.4126 67.309 13.1679 80 13.1679 80C23.0409 62.8956 32.7379 67.309 39.2647 57.2598C45.6879 47.366 35.5351 40.2072 35.2243 39.9896V40.0104Z" fill="#227CFF"/>
<path d="M10.5361 61.207C10.5361 61.207 7.43849 62.1601 4.21653 66.1176C1.28465 69.7229 0 77.5965 0 77.5965V1.27432C0 1.27432 0.569802 7.28313 3.85392 12.6393C6.62005 17.1562 10.5258 17.8503 10.5258 17.8503V61.2174L10.5361 61.207Z" fill="#227CFF"/>
<path d="M96.9903 42.0617C96.9903 43.8333 96.5759 45.1904 95.7367 46.1436C94.9079 47.0967 93.7061 47.5732 92.1521 47.5732C90.5981 47.5732 89.4068 47.107 88.578 46.1643C87.7595 45.2215 87.3451 43.8644 87.3451 42.0617V28.5833H82.4448V41.8338C82.4448 44.9729 83.2736 47.3557 84.9208 48.9926C86.5784 50.6294 88.982 51.4375 92.1418 51.4375C95.3016 51.4375 97.7155 50.6191 99.3731 48.9718C101.041 47.3246 101.87 44.9522 101.87 41.8338V28.5833H96.9695V42.0617H96.9903Z" fill="white"/>
<path d="M140.078 28.5834H135.084V51.1475H140.078V28.5834Z" fill="white"/>
<path d="M125.387 44.4651C124.579 43.0768 123.585 42.2377 122.414 41.9372C124.144 41.5746 125.48 40.8184 126.434 39.6684C127.387 38.5184 127.863 37.0887 127.863 35.3793C127.863 33.183 127.19 31.5047 125.833 30.334C124.476 29.1737 122.476 28.5935 119.834 28.5935H109.464V51.1576H114.395V42.3827H116.861C117.545 42.3827 118.114 42.507 118.56 42.7557C119.005 43.0043 119.389 43.398 119.71 43.9574L123.616 51.1576H129.055L125.408 44.4651H125.387ZM119.078 38.6013H114.312V34.4159L112.012 32.3749H114.312H119.078C120.508 32.3749 121.544 32.6236 122.186 33.1105C122.828 33.5974 123.149 34.3951 123.149 35.4829C123.149 36.5707 122.828 37.3374 122.186 37.8347C121.544 38.3319 120.508 38.591 119.078 38.591V38.6013Z" fill="white"/>
<path d="M181.953 28.5834H177.954L167.583 51.1475H172.608L174.753 46.154H185.258L186.387 48.7855L182.543 51.0957L187.392 51.1475H192.323L181.953 28.5834ZM174.939 42.3933L177.249 40.3524L180.005 33.9396L183.621 42.3933H174.939Z" fill="white"/>
<path d="M74.8508 41.4709C74.136 40.5178 73.131 39.8548 71.8257 39.4715C72.9342 39.0674 73.8044 38.4251 74.4364 37.5341C75.0683 36.6535 75.3791 35.6175 75.3791 34.4469C75.3791 32.6339 74.6954 31.2042 73.3175 30.1578C71.9396 29.1114 70.0748 28.5934 67.7334 28.5934H57.332V44.9001H62.2012V41.5953H67.4848C68.8109 41.5953 69.764 41.8335 70.3649 42.2997C70.9658 42.7659 71.2559 43.5015 71.2559 44.5064C71.2559 45.5113 70.9554 46.2365 70.3649 46.682C69.764 47.1275 68.8109 47.3554 67.4848 47.3554H64.584H57.3424V48.0806L52.3281 51.0954L57.3424 51.1472H68.065C70.5203 51.1472 72.4473 50.5878 73.8459 49.4792C75.2445 48.3707 75.9386 46.8685 75.9386 44.9623C75.9386 43.574 75.576 42.4033 74.8611 41.4606L74.8508 41.4709ZM69.733 37.1094C69.1217 37.5445 68.1789 37.7621 66.9047 37.7621H62.2012V34.4158L59.8909 32.3749H66.9047C68.1893 32.3749 69.1321 32.6028 69.733 33.0379C70.3442 33.473 70.6446 34.1671 70.6446 35.0995C70.6446 36.0319 70.3442 36.6639 69.733 37.099V37.1094Z" fill="white"/>
<path d="M149.101 44.7553H154.447L163.574 32.1679V28.5833H147.123V32.5201H157.938L149.101 44.7553Z" fill="white"/>
<path d="M155.701 47.5113H147.123V51.1477H163.895V47.5113H155.701Z" fill="white"/>
</svg>
