<svg width="193" height="80" viewBox="0 0 193 80" fill="none" xmlns="http://www.w3.org/2000/svg">
<g clip-path="url(#clip0_853_622)">
<path d="M35.348 40.0104C35.6599 39.7928 45.8484 32.634 39.4026 22.7402C32.8528 12.691 23.1217 17.094 13.2139 0C13.2139 0 8.43152 12.691 21.1776 20.0984C33.9028 27.4955 28.0912 35.2344 19.6181 40H19.5869C19.5869 40 19.5973 40 19.6077 40C19.6077 40 19.5973 40 19.5869 40H19.6181C28.0912 44.7656 33.8925 52.5045 21.1776 59.9016C8.44192 67.309 13.2139 80 13.2139 80C23.1217 62.8956 32.8528 67.309 39.4026 57.2598C45.8484 47.366 35.6599 40.2072 35.348 39.9896V40.0104Z" fill="#227CFF"/>
<path d="M10.5732 61.2071C10.5732 61.2071 7.46467 62.1602 4.23137 66.1177C1.28917 69.723 0 77.5966 0 77.5966V1.27441C0 1.27441 0.571807 7.28322 3.86749 12.6393C6.64334 17.1563 10.5628 17.8504 10.5628 17.8504V61.2174L10.5732 61.2071Z" fill="#227CFF"/>
<path d="M97.331 42.0614C97.331 43.8329 96.9151 45.1901 96.073 46.1432C95.2413 47.0963 94.0353 47.5729 92.4759 47.5729C90.9164 47.5729 89.7208 47.1067 88.8891 46.1639C88.0678 45.2212 87.6519 43.864 87.6519 42.0614V28.583H82.7344V41.8335C82.7344 44.9725 83.5661 47.3553 85.2191 48.9922C86.8825 50.6291 89.2945 51.4372 92.4654 51.4372C95.6364 51.4372 98.0588 50.6187 99.7222 48.9715C101.396 47.3243 102.228 44.9518 102.228 41.8335V28.583H97.3102V42.0614H97.331Z" fill="#001B5E"/>
<path d="M140.57 28.583H135.559V51.1471H140.57V28.583Z" fill="#001B5E"/>
<path d="M125.828 44.4643C125.017 43.0761 124.019 42.2369 122.844 41.9365C124.58 41.5739 125.922 40.8176 126.878 39.6676C127.835 38.5177 128.313 37.088 128.313 35.3786C128.313 33.1823 127.637 31.5039 126.275 30.3333C124.913 29.1729 122.907 28.5928 120.255 28.5928H109.849V51.1569H114.797V42.382H117.272C117.958 42.382 118.53 42.5063 118.977 42.7549C119.424 43.0035 119.808 43.3972 120.131 43.9567L124.05 51.1569H129.508L125.849 44.4643H125.828ZM119.497 38.6005H114.714V34.4151L112.406 32.3742H114.714H119.497C120.931 32.3742 121.971 32.6228 122.615 33.1097C123.26 33.5967 123.582 34.3944 123.582 35.4822C123.582 36.57 123.26 37.3366 122.615 37.8339C121.971 38.3312 120.931 38.5902 119.497 38.5902V38.6005Z" fill="#001B5E"/>
<path d="M182.593 28.583H178.58L168.173 51.1471H173.215L175.367 46.1536H185.909L187.042 48.785L183.185 51.0953L188.051 51.1471H193L182.593 28.583ZM175.554 42.3929L177.873 40.352L180.638 33.9391L184.267 42.3929H175.554Z" fill="#001B5E"/>
<path d="M75.1146 41.4712C74.3973 40.5181 73.3888 39.8551 72.0788 39.4718C73.1913 39.0677 74.0646 38.4254 74.6987 37.5344C75.3329 36.6538 75.6448 35.6178 75.6448 34.4472C75.6448 32.6342 74.9587 31.2045 73.5759 30.1581C72.1932 29.1118 70.3218 28.5938 67.9722 28.5938H57.5342V44.9004H62.4205V41.5956H67.7227C69.0535 41.5956 70.0099 41.8338 70.6129 42.3C71.2159 42.7662 71.507 43.5018 71.507 44.5067C71.507 45.5116 71.2055 46.2368 70.6129 46.6823C70.0099 47.1278 69.0535 47.3557 67.7227 47.3557H64.8117H57.5446V48.0809L52.5127 51.0957L57.5446 51.1475H68.3049C70.7689 51.1475 72.7026 50.5881 74.1062 49.4795C75.5097 48.371 76.2062 46.8688 76.2062 44.9626C76.2062 43.5743 75.8424 42.4036 75.125 41.4609L75.1146 41.4712ZM69.9788 37.1097C69.3654 37.5448 68.4193 37.7624 67.1405 37.7624H62.4205V34.4161L60.1021 32.3752H67.1405C68.4297 32.3752 69.3758 32.6031 69.9788 33.0382C70.5922 33.4733 70.8936 34.1674 70.8936 35.0998C70.8936 36.0322 70.5922 36.6642 69.9788 37.0993V37.1097Z" fill="#001B5E"/>
<path d="M149.625 44.755H154.99L164.149 32.1676V28.583H147.64V32.5198H158.494L149.625 44.755Z" fill="#001B5E"/>
<path d="M156.248 47.5107H147.64V51.1471H164.472V47.5107H156.248Z" fill="#001B5E"/>
</g>
<defs>
<clipPath id="clip0_853_622">
<rect width="193" height="80" fill="white"/>
</clipPath>
</defs>
</svg>
