<svg width="200" height="33" viewBox="0 0 200 33" fill="none" xmlns="http://www.w3.org/2000/svg">
<path d="M63.8041 19.3158C63.8041 21.8546 63.212 23.7996 62.0131 25.1655C60.8291 26.5314 59.1122 27.2144 56.8921 27.2144C54.672 27.2144 52.97 26.5463 51.7859 25.1952C50.6167 23.8441 50.0247 21.8992 50.0247 19.3158V0H43.0239V18.9892C43.0239 23.4878 44.208 26.9026 46.5613 29.2484C48.9294 31.5942 52.3631 32.7523 56.8773 32.7523C61.3915 32.7523 64.8401 31.5794 67.2082 29.2187C69.5911 26.8581 70.7752 23.4581 70.7752 18.9892V0H63.7744V19.3158H63.8041Z" fill="#001B5E"/>
<path d="M125.36 0H118.226V32.3366H125.36V0Z" fill="#001B5E"/>
<path d="M104.372 22.7596C103.218 20.7701 101.797 19.5675 100.125 19.137C102.596 18.6173 104.506 17.5335 105.867 15.8855C107.229 14.2375 107.91 12.1886 107.91 9.73889C107.91 6.59135 106.948 4.18614 105.009 2.50844C103.07 0.845588 100.213 0.0141602 96.4392 0.0141602H81.6238V32.3507H88.6689V19.7754H92.1915C93.1683 19.7754 93.9823 19.9536 94.6188 20.3099C95.2552 20.6662 95.8028 21.2304 96.2616 22.0321L101.841 32.3507H109.612L104.402 22.7596H104.372ZM95.3588 14.3563H88.5505V8.35813L85.2648 5.43329H88.5505H95.3588C97.4013 5.43329 98.8813 5.78961 99.799 6.48741C100.717 7.18522 101.175 8.32843 101.175 9.88736C101.175 11.4463 100.717 12.545 99.799 13.2576C98.8813 13.9703 97.4013 14.3414 95.3588 14.3414V14.3563Z" fill="#001B5E"/>
<path d="M185.184 0H179.471L164.656 32.3366H171.834L174.898 25.1804H189.906L191.519 28.9515L186.028 32.2623L192.955 32.3366H200L185.184 0ZM175.164 19.7909L178.465 16.8661L182.402 7.67585L187.567 19.7909H175.164Z" fill="#001B5E"/>
<path d="M32.1767 18.4689C31.1554 17.103 29.7197 16.1528 27.8548 15.6034C29.4385 15.0244 30.6818 14.1039 31.5846 12.827C32.4874 11.5651 32.9315 10.0804 32.9315 8.40267C32.9315 5.80446 31.9546 3.75558 29.9861 2.25605C28.0177 0.756509 25.3535 0.0141602 22.0086 0.0141602H7.14872V23.3832H14.105V18.647H21.6534C23.5478 18.647 24.9095 18.9885 25.7679 19.6566C26.6264 20.3247 27.0408 21.3789 27.0408 22.819C27.0408 24.2592 26.6116 25.2984 25.7679 25.9369C24.9095 26.5753 23.5478 26.9019 21.6534 26.9019H17.5092H7.16353V27.9412L0 32.2616L7.16353 32.3359H22.4822C25.99 32.3359 28.7429 31.5342 30.741 29.9455C32.7391 28.3569 33.7307 26.2041 33.7307 23.4723C33.7307 21.4828 33.2127 19.8051 32.1914 18.454L32.1767 18.4689ZM24.8651 12.2183C23.9919 12.8419 22.645 13.1537 20.8245 13.1537H14.105V8.35813L10.8045 5.43328H20.8245C22.6598 5.43328 24.0067 5.75992 24.8651 6.38349C25.7384 7.00706 26.1675 8.0018 26.1675 9.33802C26.1675 10.6742 25.7384 11.5799 24.8651 12.2035V12.2183Z" fill="#001B5E"/>
<path d="M137.227 23.176H144.864L157.903 5.13703V0H134.4V5.64182H149.852L137.227 23.176Z" fill="#001B5E"/>
<path d="M146.655 27.1255H134.4V32.3368H158.362V27.1255H146.655Z" fill="#001B5E"/>
</svg>
