<svg width="201" height="34" viewBox="0 0 201 34" fill="none" xmlns="http://www.w3.org/2000/svg">
<path d="M64.3944 20.2245C64.3944 22.7633 63.8023 24.7083 62.6035 26.0742C61.4194 27.4401 59.7026 28.1231 57.4825 28.1231C55.2624 28.1231 53.5603 27.455 52.3763 26.1039C51.207 24.7528 50.615 22.8079 50.615 20.2245V0.908691H43.6143V19.8979C43.6143 24.3965 44.7983 27.8113 47.1516 30.1571C49.5197 32.5029 52.9534 33.661 57.4676 33.661C61.9818 33.661 65.4304 32.4881 67.7985 30.1274C70.1814 27.7667 71.3655 24.3668 71.3655 19.8979V0.908691H64.3648V20.2245H64.3944Z" fill="white"/>
<path d="M125.95 0.908691H118.816V33.2453H125.95V0.908691Z" fill="white"/>
<path d="M104.963 23.6683C103.809 21.6788 102.388 20.4762 100.715 20.0457C103.187 19.526 105.096 18.4422 106.458 16.7942C107.819 15.1462 108.5 13.0973 108.5 10.6476C108.5 7.50004 107.538 5.09483 105.599 3.41713C103.661 1.75428 100.804 0.922852 97.0298 0.922852H82.2144V33.2594H89.2595V20.6841H92.782C93.7589 20.6841 94.5729 20.8623 95.2093 21.2186C95.8458 21.5749 96.3934 22.1391 96.8522 22.9408L102.432 33.2594H110.202L104.993 23.6683H104.963ZM95.9494 15.265H89.1411V9.26682L85.8553 6.34198H89.1411H95.9494C97.9919 6.34198 99.4719 6.6983 100.39 7.39611C101.307 8.09391 101.766 9.23712 101.766 10.796C101.766 12.355 101.307 13.4536 100.39 14.1663C99.4719 14.8789 97.9919 15.2501 95.9494 15.2501V15.265Z" fill="white"/>
<path d="M185.775 0.908691H180.062L165.246 33.2453H172.424L175.488 26.0891H190.496L192.109 29.8602L186.618 33.171L193.545 33.2453H200.59L185.775 0.908691ZM175.755 20.6996L179.055 17.7748L182.992 8.58454L188.158 20.6996H175.755Z" fill="white"/>
<path d="M32.7665 19.3776C31.7453 18.0116 30.3096 17.0614 28.4447 16.5121C30.0284 15.9331 31.2716 15.0126 32.1744 13.7357C33.0773 12.4738 33.5213 10.9891 33.5213 9.31136C33.5213 6.71315 32.5445 4.66428 30.576 3.16474C28.6075 1.6652 25.9434 0.922852 22.5984 0.922852H7.73856V24.2919H14.6949V19.5557H22.2432C24.1377 19.5557 25.4994 19.8972 26.3578 20.5653C27.2162 21.2334 27.6307 22.2876 27.6307 23.7277C27.6307 25.1679 27.2014 26.2071 26.3578 26.8456C25.4994 27.484 24.1377 27.8106 22.2432 27.8106H18.099H7.75338V28.8499L0.589844 33.1703L7.75338 33.2446H23.072C26.5798 33.2446 29.3327 32.4428 31.3308 30.8542C33.3289 29.2656 34.3205 27.1128 34.3205 24.381C34.3205 22.3915 33.8025 20.7138 32.7813 19.3627L32.7665 19.3776ZM25.455 13.127C24.5817 13.7506 23.2349 14.0624 21.4144 14.0624H14.6949V9.26682L11.3943 6.34198H21.4144C23.2497 6.34198 24.5965 6.66861 25.455 7.29218C26.3282 7.91575 26.7574 8.91049 26.7574 10.2467C26.7574 11.5829 26.3282 12.4886 25.455 13.1122V13.127Z" fill="white"/>
<path d="M137.831 24.0847H145.468L158.508 6.04572V0.908691H135.004V6.55051H150.456L137.831 24.0847Z" fill="white"/>
<path d="M147.259 28.0337H135.004V33.245H158.967V28.0337H147.259Z" fill="white"/>
</svg>
