<svg width="36" height="36" viewBox="0 0 36 36" fill="none" xmlns="http://www.w3.org/2000/svg">
<g clip-path="url(#clip0_2211_10721)">
<g filter="url(#filter0_d_2211_10721)">
<g clip-path="url(#clip1_2211_10721)">
<rect width="36" height="36" rx="4.5" fill="#FF993A"/>
<rect x="0.0928125" y="0.0928125" width="35.8144" height="35.8144" rx="4.40719" stroke="#545458" stroke-opacity="0.16" stroke-width="0.185625"/>
<path d="M21.2524 17.9969C20.9827 17.8949 20.6791 18.0309 20.5752 18.3008C20.5692 18.3188 19.892 20.0124 18.8392 20.0124C18.8292 20.0124 18.8212 20.0124 18.8112 20.0124C18.5675 20.0044 18.2538 19.5725 18.12 19.2646C18.12 19.2646 18.12 19.2626 18.118 19.2606C18.5115 19.0526 18.7493 18.7627 18.7033 18.4808C18.6334 18.0449 17.9142 17.7969 17.0971 17.9309C16.2801 18.0629 15.6767 18.5247 15.7467 18.9606C15.8026 19.3125 16.2861 19.5385 16.8974 19.5425C16.8774 19.8744 16.7615 20.3143 16.5617 20.4083C15.5948 20.8581 14.2823 19.5525 14.2643 19.5345C14.0626 19.3265 13.731 19.3205 13.5232 19.5225C13.3154 19.7244 13.3094 20.0564 13.5092 20.2643C13.5691 20.3283 14.7718 21.554 16.1222 21.554C16.4119 21.554 16.7096 21.498 17.0032 21.36C17.3708 21.1881 17.5946 20.8761 17.7324 20.5502C17.9941 20.8202 18.3437 21.0501 18.7792 21.0621C18.7992 21.0621 18.8192 21.0621 18.8392 21.0621C20.6331 21.0621 21.5181 18.7707 21.5541 18.6707C21.656 18.3988 21.5201 18.0969 21.2484 17.9949L21.2524 17.9969Z" fill="black"/>
<path d="M17.312 5.67578C10.5117 5.67578 5 11.1924 5 17.9986C5 24.8048 10.5117 30.3214 17.312 30.3214C24.1123 30.3214 29.624 24.8048 29.624 17.9986C29.624 11.1924 24.1103 5.67578 17.312 5.67578ZM23.8166 24.7389C20.1208 28.5719 15.1145 27.996 12.3437 26.2725C9.58879 24.5589 8.73576 22.4814 8.80767 21.4397C8.98547 18.8544 14.5232 18.6884 14.8648 17.0268C15.3442 14.6975 12.7252 13.7817 10.7295 14.7894C8.73376 15.7972 7.92867 16.9229 7.92867 16.9229C7.92867 16.9229 8.67383 9.22486 16.9145 8.77898C25.1531 8.3331 26.6234 15.6432 26.6234 15.6432C26.6234 15.6432 25.1711 13.0359 21.5472 13.0359C18.2969 13.0359 17.5757 16.421 20.2786 16.7609C22.7998 17.0788 29.5841 18.7564 23.8186 24.7369L23.8166 24.7389ZM11.4147 15.6312C12.2318 15.3633 13.1128 15.8092 13.3825 16.627C13.6522 17.4447 12.5934 16.8209 11.7743 17.0908C10.9572 17.3588 10.6875 18.4185 10.4198 17.6007C10.1521 16.7829 10.5976 15.9011 11.4147 15.6312ZM23.1754 15.6772C23.0894 16.535 22.64 15.4673 21.7829 15.3813C20.9259 15.2953 19.987 16.2251 20.0729 15.3673C20.1588 14.5095 20.9219 13.8837 21.7789 13.9696C22.636 14.0556 23.2613 14.8194 23.1754 15.6772Z" fill="black"/>
</g>
</g>
</g>
<defs>
<filter id="filter0_d_2211_10721" x="-11.25" y="-9" width="58.5" height="58.5" filterUnits="userSpaceOnUse" color-interpolation-filters="sRGB">
<feFlood flood-opacity="0" result="BackgroundImageFix"/>
<feColorMatrix in="SourceAlpha" type="matrix" values="0 0 0 0 0 0 0 0 0 0 0 0 0 0 0 0 0 0 127 0" result="hardAlpha"/>
<feOffset dy="2.25"/>
<feGaussianBlur stdDeviation="5.625"/>
<feComposite in2="hardAlpha" operator="out"/>
<feColorMatrix type="matrix" values="0 0 0 0 0.329412 0 0 0 0 0.329412 0 0 0 0 0.345098 0 0 0 0.1 0"/>
<feBlend mode="normal" in2="BackgroundImageFix" result="effect1_dropShadow_2211_10721"/>
<feBlend mode="normal" in="SourceGraphic" in2="effect1_dropShadow_2211_10721" result="shape"/>
</filter>
<clipPath id="clip0_2211_10721">
<rect width="36" height="36" fill="white"/>
</clipPath>
<clipPath id="clip1_2211_10721">
<rect width="36" height="36" rx="18" fill="white"/>
</clipPath>
</defs>
</svg>
