<svg width="100" height="26" viewBox="0 0 100 26" fill="none" xmlns="http://www.w3.org/2000/svg">
<g clip-path="url(#clip0_867_1361)">
<path d="M93.9821 6.72897C93.9063 5.86974 93.5663 3.60021 95.5224 2.94711C97.1918 2.3879 98.5826 2.8716 99.2769 4.23086C100.471 6.56978 100.193 12.7375 98.3982 16.9173C96.606 21.0972 92.8043 21.5115 89.4636 20.7992C86.1228 20.089 83.4518 16.8969 85.1334 14.4845C86.8151 12.0721 88.3042 13.9906 89.0559 14.6192C92.749 17.699 93.7855 13.3681 93.7855 13.3681C88.8982 15.356 87.0609 10.2414 86.77 7.04736C86.4792 3.85329 88.1997 2.55525 89.7196 2.86139C91.7474 3.26958 91.051 6.95756 91.2742 8.11885C91.4975 9.28014 92.7306 9.08013 92.7306 9.08013C92.7306 9.08013 94.189 9.08626 93.98 6.72897H93.9821ZM72.7064 2.71853C71.1169 2.71853 69.9617 3.31244 69.9617 5.09214C69.9617 7.85965 71.3709 11.3844 72.6818 14.4253C73.4336 16.1703 74.5704 19.2175 76.6207 19.744C77.0201 19.8747 77.8456 19.9093 78.243 19.9093C81.254 19.9093 82.2064 17.1214 83.0667 14.3192C83.7283 12.3089 85.9425 7.23308 85.9425 5.5187C85.9425 4.1676 85.115 2.91446 83.6607 2.91446C83.0339 2.91446 82.2064 3.14509 81.7763 3.60634C80.6088 4.50843 80.4715 7.30043 79.4392 10.717C79.2016 11.5048 78.712 12.6824 78.2471 12.6824C77.7821 12.6824 77.3376 12.5599 77.0058 11.1762C76.5429 9.23116 75.4204 5.6187 74.6257 3.839C74.2303 2.98385 73.5667 2.71853 72.7085 2.71853H72.7064ZM68.8925 6.88612C68.405 4.77988 68.5975 3.41041 67.981 3.32265C65.8426 3.02059 65.7995 7.46575 65.2096 10.719C65.0683 11.4925 64.8205 12.7252 64.3432 12.7252C63.866 12.7252 63.4051 12.5518 63.0651 11.1231C62.5878 9.11891 61.4346 5.70034 60.6174 3.86554C60.2097 2.98385 59.5256 2.71037 58.6408 2.71037C57.0021 2.71037 55.8121 3.32265 55.8121 5.15745C55.8121 8.01068 57.2459 11.2354 58.5957 14.3682C59.3699 16.1663 60.5498 19.0828 62.6636 19.6257C63.0753 19.7604 63.9274 19.7951 64.335 19.7951C67.4382 19.7951 68.4275 17.248 69.3124 14.36C69.425 14.0172 69.5582 13.5845 69.6893 13.1314C69.9658 12.1762 69.9515 11.166 69.679 10.2088C69.4394 9.37403 69.2182 8.27804 68.8945 6.88204L68.8925 6.88612ZM55.98 10.9088C55.98 9.45771 55.6216 8.10865 54.9046 6.86367C54.1857 5.61666 53.2271 4.62681 52.0288 3.89207C50.8306 3.15733 49.5545 2.78792 48.2006 2.78792C46.8466 2.78792 45.5357 3.14304 44.3272 3.84513C43.1167 4.55129 42.1417 5.56564 41.4043 6.89429C40.669 8.2209 40.2982 9.76385 40.2982 11.5211C40.2982 13.0947 40.6464 14.509 41.3449 15.7662C42.0413 17.0235 43.0327 18.0072 44.3129 18.7236C45.5951 19.4399 47.0965 19.7951 48.8171 19.7951C49.8003 19.7951 51.1726 19.7706 52.6515 19.0338C53.561 18.5807 54.6404 17.799 55.3266 17.1806C55.8673 16.6928 56.0804 16.0601 56.0804 15.5091C56.0804 15.1009 55.8899 14.7743 55.6195 14.4376C55.3225 14.0661 55.1627 13.7804 54.495 13.7131C54.1693 13.6804 53.7965 13.8784 53.4258 14.06C53.3234 14.1233 53.0018 14.256 52.4979 14.5866C51.9469 14.9478 51.1296 15.4152 49.4377 15.5091C48.2026 15.5785 47.3157 15.1356 46.5988 14.3886C45.8635 13.6233 45.9188 13.1375 45.8758 12.7252L54.1038 12.564C54.5974 12.564 55.0276 12.4109 55.3942 12.1048C55.7649 11.7987 55.9595 11.3986 55.98 10.9109V10.9088ZM47.2604 6.93715C47.8913 6.68203 49.1489 6.54325 49.999 7.11267C50.5152 7.45759 50.8326 7.84945 51.0252 8.20661C51.0928 8.33315 51.1214 8.46581 51.1173 8.59439C51.0989 9.11279 50.5008 9.40668 50.0461 9.15769C49.5914 8.90869 49.3005 8.52296 48.4709 8.51275C47.4243 8.50051 46.8159 9.03523 46.353 9.25565C46.1215 9.36586 45.8327 9.33117 45.6668 9.13524C45.5173 8.95972 45.4763 8.70052 45.6054 8.45356C46.0376 7.62494 46.736 7.14736 47.2604 6.93715ZM39.399 14.9172L35.6568 14.8764V5.27991C35.6568 3.64716 34.4974 2.86956 32.9899 2.86956H32.2628C30.833 2.86956 30.0526 3.64716 30.0526 5.27991V16.9133C30.0526 18.8052 31.0153 19.7624 32.7318 19.7624C32.7318 19.7624 37.828 19.7481 40.3249 19.7624C40.7939 19.7644 41.8181 19.8114 42.0229 18.9664C40.0709 17.9603 39.4748 15.1662 39.4031 14.9172H39.399ZM15.0775 10.3455C15.0038 11.0884 15.8211 10.2843 16.5666 10.3578C17.3122 10.4312 17.7034 11.3578 17.7772 10.6149C17.8509 9.87202 17.3081 9.20871 16.5625 9.13524C15.817 9.06176 15.1513 9.60261 15.0775 10.3455ZM18.3343 18.4664C15.1164 21.7891 10.7597 21.289 8.34887 19.7951C5.95031 18.3093 5.20882 16.5091 5.27027 15.6071C5.42594 13.3661 10.2456 13.2232 10.5426 11.7823C10.9604 9.76385 8.68069 8.96992 6.94373 9.84344C5.15966 10.7415 4.50626 11.6925 4.50626 11.6925C4.50626 11.6925 5.15557 5.02275 12.3267 4.63701C19.4978 4.25127 20.7779 10.5863 20.7779 10.5863C20.7779 10.5863 19.5141 8.32703 16.3577 8.32703C13.527 8.32703 12.9022 11.2599 15.2537 11.5537C17.4474 11.8293 23.3547 13.2824 18.3343 18.4644V18.4664ZM16.1017 12.6293C15.8661 12.5395 15.6019 12.6579 15.5118 12.8926C15.5056 12.9069 14.9178 14.3764 14.0001 14.3764C13.9919 14.3764 13.9837 14.3764 13.9755 14.3764C13.7646 14.3702 13.4901 13.9947 13.3733 13.7273C13.3733 13.7273 13.3733 13.7253 13.3713 13.7233C13.7134 13.5437 13.9202 13.2926 13.8813 13.0477C13.8199 12.6701 13.1931 12.4558 12.4823 12.5701C11.7716 12.6844 11.2452 13.0845 11.3066 13.462C11.3558 13.7682 11.7757 13.9621 12.3082 13.9661C12.2918 14.2539 12.1915 14.6356 12.0153 14.7152C11.1735 15.105 10.0305 13.9723 10.0162 13.958C9.84003 13.7784 9.55122 13.7722 9.37097 13.9478C9.18867 14.1233 9.18457 14.4111 9.35868 14.5907C9.41193 14.6458 10.4566 15.7091 11.6323 15.7091C11.8842 15.7091 12.1444 15.6601 12.3984 15.5417C12.7179 15.3928 12.9125 15.1213 13.0333 14.8397C13.2607 15.0744 13.5659 15.2723 13.9448 15.2846C13.9633 15.2846 13.9796 15.2846 13.9981 15.2846C15.5589 15.2846 16.329 13.2988 16.3618 13.213C16.4499 12.9783 16.3311 12.7171 16.0955 12.6273L16.1017 12.6293ZM7.85318 11.8415C8.56599 11.6089 9.48567 12.1497 9.25217 11.4395C9.01866 10.7292 8.2526 10.3435 7.53979 10.5761C6.82698 10.8088 6.43985 11.5721 6.67336 12.2824C6.90686 12.9926 7.14037 12.0742 7.85318 11.8415ZM25.3436 12.6252C25.3436 19.5991 19.6698 25.2505 12.6728 25.2505C5.67584 25.2505 0 19.5991 0 12.6252C0 5.65136 5.67379 0 12.6708 0C19.6678 0 25.3416 5.6534 25.3416 12.6252H25.3436ZM23.3875 12.6252C23.3875 6.72897 18.5904 1.94705 12.6708 1.94705C6.75119 1.94705 1.95613 6.72897 1.95613 12.6252C1.95613 18.5215 6.75324 23.3034 12.6728 23.3034C18.5924 23.3034 23.3895 18.5236 23.3895 12.6252H23.3875Z" fill="url(#paint0_linear_867_1361)"/>
</g>
<defs>
<linearGradient id="paint0_linear_867_1361" x1="0" y1="12.6252" x2="100" y2="12.6252" gradientUnits="userSpaceOnUse">
<stop stop-color="#FF9934"/>
<stop offset="1" stop-color="#45DDB2"/>
</linearGradient>
<clipPath id="clip0_867_1361">
<rect width="100" height="25.2525" fill="white"/>
</clipPath>
</defs>
</svg>
