<svg width="41" height="40" viewBox="0 0 41 40" fill="none" xmlns="http://www.w3.org/2000/svg">
<path d="M27.2811 20.0001C26.8434 19.8346 26.3506 20.0553 26.182 20.4934C26.1723 20.5226 25.0731 23.2712 23.3644 23.2712C23.3482 23.2712 23.3352 23.2712 23.319 23.2712C22.9235 23.2583 22.4144 22.5573 22.1972 22.0575C22.1972 22.0575 22.1972 22.0543 22.1939 22.051C22.8327 21.7136 23.2185 21.243 23.1439 20.7854C23.0305 20.078 21.8632 19.6756 20.5371 19.893C19.211 20.1072 18.2318 20.8568 18.3453 21.5643C18.4361 22.1354 19.2207 22.5021 20.2129 22.5086C20.1805 23.0473 19.9924 23.7613 19.6682 23.9138C18.0989 24.6439 15.9687 22.5248 15.9395 22.4956C15.612 22.1581 15.0738 22.1484 14.7366 22.4762C14.3994 22.8039 14.3897 23.3426 14.7139 23.6801C14.8112 23.784 16.763 25.7733 18.9549 25.7733C19.425 25.7733 19.9081 25.6824 20.3847 25.4585C20.9813 25.1794 21.3444 24.6732 21.5682 24.1442C21.9929 24.5823 22.5603 24.9555 23.2671 24.975C23.2996 24.975 23.332 24.975 23.3644 24.975C26.276 24.975 27.7124 21.256 27.7707 21.0937C27.9361 20.6524 27.7156 20.1624 27.2747 19.9969L27.2811 20.0001Z" fill="black"/>
<path d="M20.8872 0C9.85037 0 0.904785 8.95343 0.904785 20C0.904785 31.0466 9.85037 40 20.8872 40C31.9241 40 40.8697 31.0466 40.8697 20C40.8697 8.95343 31.9209 0 20.8872 0ZM31.4443 30.9395C25.446 37.1605 17.3207 36.2259 12.8236 33.4285C8.35241 30.6474 6.96794 27.2757 7.08466 25.5849C7.37323 21.3889 16.361 21.1196 16.9154 18.4228C17.6936 14.6422 13.4429 13.1559 10.2038 14.7915C6.96469 16.4271 5.65804 18.2541 5.65804 18.2541C5.65804 18.2541 6.86742 5.76018 20.242 5.03651C33.6134 4.31283 35.9997 16.1772 35.9997 16.1772C35.9997 16.1772 33.6426 11.9455 27.761 11.9455C22.4857 11.9455 21.3152 17.4396 25.7021 17.9912C29.7939 18.5072 40.8049 21.2299 31.4475 30.9362L31.4443 30.9395ZM11.3159 16.1577C12.642 15.7229 14.0719 16.4465 14.5096 17.7738C14.9473 19.1011 13.2289 18.0886 11.8995 18.5267C10.5734 18.9615 10.1357 20.6815 9.70122 19.3542C9.26675 18.0269 9.98979 16.5958 11.3159 16.1577ZM30.4035 16.2324C30.2641 17.6245 29.5345 15.8916 28.1436 15.7521C26.7526 15.6125 25.2287 17.1215 25.3681 15.7294C25.5076 14.3372 26.7461 13.3214 28.1371 13.461C29.528 13.6005 30.5429 14.8402 30.4035 16.2324Z" fill="black"/>
</svg>
