<svg width="17" height="32" viewBox="0 0 17 32" fill="none" xmlns="http://www.w3.org/2000/svg">
<path d="M14.1027 16.0041C14.2272 15.9171 18.292 13.0536 15.7204 9.09609C13.1073 5.0764 9.22492 6.83761 5.27205 0C5.27205 0 3.36406 5.07641 8.44927 8.03937C13.5262 10.9982 11.2076 14.0938 7.8271 16H7.81466C7.81466 16 7.81881 16 7.82296 16C7.82296 16 7.81881 16 7.81466 16H7.8271C11.2076 17.9062 13.522 21.0018 8.44927 23.9606C3.3682 26.9236 5.27205 32 5.27205 32C9.22492 25.1582 13.1073 26.9236 15.7204 22.9039C18.292 18.9464 14.2272 16.0829 14.1027 15.9959V16.0041Z" fill="#227CFF"/>
<path d="M4.21832 24.4828C4.21832 24.4828 2.97813 24.8641 1.68816 26.4471C0.514332 27.8892 0 31.0386 0 31.0386V0.509766C0 0.509766 0.22813 2.91329 1.54299 5.05574C2.65045 6.86252 4.21418 7.14017 4.21418 7.14017V24.487L4.21832 24.4828Z" fill="#227CFF"/>
</svg>
