<svg width="24" height="24" viewBox="0 0 24 24" fill="none" xmlns="http://www.w3.org/2000/svg">
<path d="M12.0203 4C10.2734 3.99994 8.56408 4.44978 7.09994 5.29489C5.6358 6.14 4.47986 7.34401 3.77252 8.76068C3.06518 10.1773 2.83688 11.7457 3.11534 13.2753C3.39381 14.8048 4.16707 16.2297 5.34118 17.3769C6.5153 18.5242 8.03976 19.3443 9.72938 19.7378C11.419 20.1312 13.2011 20.081 14.8592 19.5933C16.5173 19.1056 17.98 18.2014 19.0697 16.9904C20.1594 15.7795 20.8292 14.3139 20.9978 12.7718C21.0073 12.6796 20.9861 12.5871 20.9367 12.5056C20.8873 12.4241 20.8119 12.3574 20.72 12.3137C20.628 12.27 20.5236 12.2513 20.4198 12.26C20.3159 12.2686 20.2172 12.3042 20.1361 12.3624C19.5877 12.7559 18.9563 13.0486 18.2789 13.2231C17.6014 13.3977 16.8915 13.4507 16.1907 13.3791C15.4899 13.3074 14.8123 13.1125 14.1974 12.8058C13.5825 12.499 13.0428 12.0866 12.6098 11.5927C12.1768 11.0987 11.8592 10.5332 11.6755 9.92906C11.4919 9.32494 11.446 8.69441 11.5404 8.07436C11.6348 7.4543 11.8677 6.85717 12.2254 6.3179C12.5831 5.77862 13.0585 5.30803 13.6237 4.93365C13.7076 4.87807 13.771 4.80172 13.8061 4.71422C13.8412 4.62673 13.8462 4.53198 13.8207 4.44193C13.7952 4.35187 13.7402 4.27053 13.6626 4.20813C13.5851 4.14574 13.4885 4.10509 13.3849 4.09129C12.9333 4.03061 12.4771 4.0001 12.0203 4Z" fill="black"/>
</svg>
