<svg width="24" height="24" viewBox="0 0 24 24" fill="none" xmlns="http://www.w3.org/2000/svg">
<path d="M11.9989 15.6932C14.0382 15.6932 15.6913 14.0401 15.6913 12.0009C15.6913 9.9617 14.0382 8.30859 11.9989 8.30859C9.95974 8.30859 8.30664 9.9617 8.30664 12.0009C8.30664 14.0401 9.95974 15.6932 11.9989 15.6932Z" fill="black"/>
<path d="M12 6.46154C11.8368 6.46154 11.6803 6.3967 11.5649 6.2813C11.4495 6.16589 11.3846 6.00936 11.3846 5.84615V4.61538C11.3846 4.45217 11.4495 4.29565 11.5649 4.18024C11.6803 4.06483 11.8368 4 12 4C12.1632 4 12.3197 4.06483 12.4351 4.18024C12.5505 4.29565 12.6154 4.45217 12.6154 4.61538V5.84615C12.6154 6.00936 12.5505 6.16589 12.4351 6.2813C12.3197 6.3967 12.1632 6.46154 12 6.46154ZM12 20C11.8368 20 11.6803 19.9352 11.5649 19.8198C11.4495 19.7044 11.3846 19.5478 11.3846 19.3846V18.1538C11.3846 17.9906 11.4495 17.8341 11.5649 17.7187C11.6803 17.6033 11.8368 17.5385 12 17.5385C12.1632 17.5385 12.3197 17.6033 12.4351 17.7187C12.5505 17.8341 12.6154 17.9906 12.6154 18.1538V19.3846C12.6154 19.5478 12.5505 19.7044 12.4351 19.8198C12.3197 19.9352 12.1632 20 12 20ZM5.84615 12.6154H4.61538C4.45217 12.6154 4.29565 12.5505 4.18024 12.4351C4.06483 12.3197 4 12.1632 4 12C4 11.8368 4.06483 11.6803 4.18024 11.5649C4.29565 11.4495 4.45217 11.3846 4.61538 11.3846H5.84615C6.00936 11.3846 6.16589 11.4495 6.2813 11.5649C6.3967 11.6803 6.46154 11.8368 6.46154 12C6.46154 12.1632 6.3967 12.3197 6.2813 12.4351C6.16589 12.5505 6.00936 12.6154 5.84615 12.6154ZM19.3846 12.6154H18.1538C17.9906 12.6154 17.8341 12.5505 17.7187 12.4351C17.6033 12.3197 17.5385 12.1632 17.5385 12C17.5385 11.8368 17.6033 11.6803 17.7187 11.5649C17.8341 11.4495 17.9906 11.3846 18.1538 11.3846H19.3846C19.5478 11.3846 19.7044 11.4495 19.8198 11.5649C19.9352 11.6803 20 11.8368 20 12C20 12.1632 19.9352 12.3197 19.8198 12.4351C19.7044 12.5505 19.5478 12.6154 19.3846 12.6154ZM6.77538 17.84C6.61307 17.8377 6.45823 17.7713 6.34462 17.6554C6.23 17.5401 6.16567 17.3841 6.16567 17.2215C6.16567 17.059 6.23 16.903 6.34462 16.7877L7.21231 15.9138C7.32819 15.798 7.48535 15.7329 7.64923 15.7329C7.81311 15.7329 7.97027 15.798 8.08615 15.9138C8.20203 16.0297 8.26713 16.1869 8.26713 16.3508C8.26713 16.5146 8.20203 16.6718 8.08615 16.7877L7.21231 17.6554C7.15531 17.7135 7.08735 17.7598 7.01235 17.7915C6.93735 17.8232 6.8568 17.8397 6.77538 17.84ZM16.3508 8.26462C16.2698 8.26508 16.1895 8.24956 16.1145 8.21894C16.0395 8.18831 15.9713 8.14319 15.9138 8.08615C15.8562 8.02895 15.8104 7.96088 15.7791 7.88589C15.7479 7.8109 15.7318 7.73047 15.7318 7.64923C15.7318 7.56799 15.7479 7.48756 15.7791 7.41257C15.8104 7.33758 15.8562 7.26952 15.9138 7.21231L16.7877 6.34462C16.9054 6.2438 17.0568 6.19112 17.2117 6.1971C17.3666 6.20308 17.5135 6.26729 17.6231 6.37688C17.7327 6.48648 17.7969 6.6334 17.8029 6.78828C17.8089 6.94315 17.7562 7.09458 17.6554 7.21231L16.7877 8.08615C16.7302 8.14319 16.662 8.18831 16.587 8.21894C16.512 8.24956 16.4318 8.26508 16.3508 8.26462ZM17.2246 17.84C17.1432 17.8397 17.0627 17.8232 16.9877 17.7915C16.9127 17.7598 16.8447 17.7135 16.7877 17.6554L15.9138 16.7877C15.8565 16.7303 15.811 16.6622 15.7799 16.5872C15.7488 16.5123 15.7329 16.4319 15.7329 16.3508C15.7329 16.2696 15.7488 16.1893 15.7799 16.1143C15.811 16.0393 15.8565 15.9712 15.9138 15.9138C15.9712 15.8565 16.0393 15.811 16.1143 15.7799C16.1893 15.7488 16.2696 15.7329 16.3508 15.7329C16.4319 15.7329 16.5123 15.7488 16.5872 15.7799C16.6622 15.811 16.7303 15.8565 16.7877 15.9138L17.6554 16.7877C17.77 16.903 17.8343 17.059 17.8343 17.2215C17.8343 17.3841 17.77 17.5401 17.6554 17.6554C17.5418 17.7713 17.3869 17.8377 17.2246 17.84ZM7.64923 8.26462C7.56824 8.26508 7.48796 8.24956 7.41298 8.21894C7.338 8.18831 7.26981 8.14319 7.21231 8.08615L6.34462 7.21231C6.2438 7.09458 6.19112 6.94315 6.1971 6.78828C6.20308 6.6334 6.26729 6.48648 6.37688 6.37688C6.48648 6.26729 6.6334 6.20308 6.78828 6.1971C6.94315 6.19112 7.09458 6.2438 7.21231 6.34462L8.08615 7.21231C8.14383 7.26952 8.18961 7.33758 8.22086 7.41257C8.2521 7.48756 8.26818 7.56799 8.26818 7.64923C8.26818 7.73047 8.2521 7.8109 8.22086 7.88589C8.18961 7.96088 8.14383 8.02895 8.08615 8.08615C8.02865 8.14319 7.96046 8.18831 7.88548 8.21894C7.8105 8.24956 7.73022 8.26508 7.64923 8.26462Z" fill="black"/>
</svg>
