<svg width="456" height="456" viewBox="0 0 456 456" fill="none" xmlns="http://www.w3.org/2000/svg">
<g clip-path="url(#clip0_852_537)">
<path d="M284.592 228.046C285.703 227.267 321.524 201.797 298.846 166.55C275.829 130.742 241.612 146.435 206.778 85.5303C206.778 85.5303 189.963 130.742 234.794 157.115C279.532 183.457 259.107 211.045 229.333 227.984H229.209C229.209 227.984 229.24 227.984 229.271 228.015C229.271 228.015 229.24 228.015 229.209 228.046H229.333C259.137 245.016 279.532 272.603 234.794 298.914C189.994 325.288 206.778 370.499 206.778 370.499C241.612 309.594 275.86 325.288 298.877 289.48C321.555 254.232 285.734 228.762 284.623 227.984L284.592 228.046Z" fill="white"/>
<path d="M197.491 303.523C197.491 303.523 186.569 306.917 175.215 321.022C164.879 333.881 160.343 361.905 160.343 361.905V90.0762C160.343 90.0762 162.38 111.468 173.95 130.555C183.731 146.653 197.522 149.113 197.522 149.113V303.554L197.491 303.523Z" fill="white"/>
</g>
<defs>
<clipPath id="clip0_852_537">
<rect width="146.733" height="283.703" fill="white" transform="translate(160.312 85.5303)"/>
</clipPath>
</defs>
</svg>
