<svg width="90" height="89" viewBox="0 0 90 89" fill="none" xmlns="http://www.w3.org/2000/svg">
<path d="M13.8892 30.6267V20.7749C13.8892 16.1111 17.6699 12.3304 22.3336 12.3304H31.7163" stroke="white" stroke-width="3.33333" stroke-linecap="round"/>
<path d="M13.8892 57.8368V67.6886C13.8892 72.3524 17.6699 76.1331 22.3336 76.1331H31.7163" stroke="white" stroke-width="3.33333" stroke-linecap="round"/>
<path d="M77.2227 30.6267V20.7749C77.2227 16.1111 73.4419 12.3304 68.7782 12.3304H59.3955" stroke="white" stroke-width="3.33333" stroke-linecap="round"/>
<path d="M77.2227 57.8368V67.6886C77.2227 72.3524 73.4419 76.1331 68.7782 76.1331H59.3955" stroke="white" stroke-width="3.33333" stroke-linecap="round"/>
<path d="M56.1116 57.6635L54.7017 58.2901C48.8792 60.8779 42.2329 60.8779 36.4104 58.2901L35.0005 57.6635" stroke="white" stroke-width="3.33333" stroke-linecap="round"/>
<path d="M46.9508 34.2068V45.7791C46.9508 47.5517 45.7105 49.0826 43.9765 49.4505L42.5063 49.7623" stroke="white" stroke-width="3.33333" stroke-linecap="round"/>
<path d="M32.1855 34.2068L32.1855 39.7623" stroke="white" stroke-width="3.33333" stroke-linecap="round"/>
<path d="M59.3955 34.2068L59.3955 39.7623" stroke="white" stroke-width="3.33333" stroke-linecap="round"/>
</svg>
