<svg width="89" height="89" viewBox="0 0 89 89" fill="none" xmlns="http://www.w3.org/2000/svg">
<path d="M13.333 30.519V20.6671C13.333 16.0034 17.1137 12.2227 21.7775 12.2227H31.1602" stroke="#727786" stroke-width="3.33333" stroke-linecap="round"/>
<path d="M13.333 57.7291V67.5809C13.333 72.2447 17.1137 76.0254 21.7775 76.0254H31.1602" stroke="#727786" stroke-width="3.33333" stroke-linecap="round"/>
<path d="M76.666 30.519V20.6671C76.666 16.0034 72.8853 12.2227 68.2216 12.2227H58.8389" stroke="#727786" stroke-width="3.33333" stroke-linecap="round"/>
<path d="M76.666 57.7291V67.5809C76.666 72.2447 72.8853 76.0254 68.2216 76.0254H58.8389" stroke="#727786" stroke-width="3.33333" stroke-linecap="round"/>
<path d="M55.5554 57.5557L54.1455 58.1823C48.323 60.7701 41.6768 60.7701 35.8543 58.1823L34.4443 57.5557" stroke="#727786" stroke-width="3.33333" stroke-linecap="round"/>
<path d="M46.3956 34.0986V45.6709C46.3956 47.4436 45.1554 48.9745 43.4213 49.3423L41.9512 49.6542" stroke="#727786" stroke-width="3.33333" stroke-linecap="round"/>
<path d="M31.6299 34.0986L31.6299 39.6542" stroke="#727786" stroke-width="3.33333" stroke-linecap="round"/>
<path d="M58.8398 34.0986L58.8398 39.6542" stroke="#727786" stroke-width="3.33333" stroke-linecap="round"/>
</svg>
